<mxfile host="app.diagrams.net" modified="2022-03-29T19:16:44.461Z" agent="5.0 (Windows)" etag="ImtPWmWbWkdJhe3eFWRJ" version="17.2.2" type="github">
  <diagram id="F_364fIuhNWME3JPATQe" name="Page-1">
    <mxGraphModel dx="1824" dy="540" grid="1" gridSize="10" guides="1" tooltips="1" connect="1" arrows="1" fold="1" page="1" pageScale="1" pageWidth="850" pageHeight="1100" math="0" shadow="0">
      <root>
        <mxCell id="0" />
        <mxCell id="1" parent="0" />
        <mxCell id="GF2sEnijfSybpPJP5jjq-1" value="" style="rounded=0;whiteSpace=wrap;html=1;" vertex="1" parent="1">
          <mxGeometry x="-160" y="50" width="970" height="640" as="geometry" />
        </mxCell>
        <mxCell id="GF2sEnijfSybpPJP5jjq-2" value="" style="rounded=0;whiteSpace=wrap;html=1;" vertex="1" parent="1">
          <mxGeometry x="-140" y="70" width="930" height="270" as="geometry" />
        </mxCell>
        <mxCell id="GF2sEnijfSybpPJP5jjq-3" value="" style="rounded=0;whiteSpace=wrap;html=1;" vertex="1" parent="1">
          <mxGeometry x="-140" y="360" width="930" height="300" as="geometry" />
        </mxCell>
        <mxCell id="GF2sEnijfSybpPJP5jjq-4" value="Roles" style="text;html=1;strokeColor=none;fillColor=none;align=left;verticalAlign=middle;whiteSpace=wrap;rounded=0;" vertex="1" parent="1">
          <mxGeometry x="-130" y="370" width="170" height="30" as="geometry" />
        </mxCell>
        <mxCell id="GF2sEnijfSybpPJP5jjq-5" value="&lt;div&gt;General Info&lt;/div&gt;" style="text;html=1;strokeColor=none;fillColor=none;align=left;verticalAlign=middle;whiteSpace=wrap;rounded=0;" vertex="1" parent="1">
          <mxGeometry x="-130" y="80" width="210" height="30" as="geometry" />
        </mxCell>
        <mxCell id="GF2sEnijfSybpPJP5jjq-6" value="Name: " style="text;html=1;strokeColor=none;fillColor=none;align=left;verticalAlign=middle;whiteSpace=wrap;rounded=0;" vertex="1" parent="1">
          <mxGeometry x="-90" y="110" width="650" height="30" as="geometry" />
        </mxCell>
        <mxCell id="GF2sEnijfSybpPJP5jjq-7" value="Address:" style="text;html=1;strokeColor=none;fillColor=none;align=left;verticalAlign=middle;whiteSpace=wrap;rounded=0;" vertex="1" parent="1">
          <mxGeometry x="-90" y="140" width="650" height="30" as="geometry" />
        </mxCell>
        <mxCell id="GF2sEnijfSybpPJP5jjq-8" value="Number of Beds:" style="text;html=1;strokeColor=none;fillColor=none;align=left;verticalAlign=middle;whiteSpace=wrap;rounded=0;" vertex="1" parent="1">
          <mxGeometry x="-90" y="170" width="650" height="30" as="geometry" />
        </mxCell>
        <mxCell id="GF2sEnijfSybpPJP5jjq-9" value="Number of Patients:" style="text;html=1;strokeColor=none;fillColor=none;align=left;verticalAlign=middle;whiteSpace=wrap;rounded=0;" vertex="1" parent="1">
          <mxGeometry x="-90" y="200" width="650" height="30" as="geometry" />
        </mxCell>
        <mxCell id="GF2sEnijfSybpPJP5jjq-10" value="Number of Registered Staff:" style="text;html=1;strokeColor=none;fillColor=none;align=left;verticalAlign=middle;whiteSpace=wrap;rounded=0;" vertex="1" parent="1">
          <mxGeometry x="-90" y="230" width="650" height="30" as="geometry" />
        </mxCell>
      </root>
    </mxGraphModel>
  </diagram>
</mxfile>
